<!-- To generate icon.png, visit https://svgtopng.com/ -->
<svg width="256" height="256" alt="Wind Turbine" xmlns="http://www.w3.org/2000/svg" xmlns:xlink="http://www.w3.org/1999/xlink" version="1.1" x="0px" y="0px" viewBox="0 0 512 512" enable-background="new 0 0 512 512" xml:space="preserve">
  <!-- Mask technique - https://stackoverflow.com/a/22581434 -->
  <mask id="wind-turbine">
    <rect width="100%" height="100%" fill="white"/>
    <path fill="black" d="M317.027,177.958c-32.982,0-62.777,3.344-84.151,8.718c-6.516-10.781-18.077-18.155-31.405-18.905 c-5.828-21.437-18.077-49.779-35.092-79.247c-32.53-56.31-70.122-95.496-83.996-87.466c-13.874,8,1.219,60.154,33.749,116.465 c16.546,28.687,34.42,52.904,49.81,68.716c-3.75,6.031-5.921,13.125-5.921,20.718c0,7.125,1.89,13.781,5.203,19.531 c-15.218,15.843-32.812,39.748-49.091,67.974c-32.53,56.312-47.623,108.465-33.749,116.465 c13.875,8.03,51.466-31.124,83.996-87.435c16.499-28.594,28.499-56.1,34.529-77.317c13.578-0.563,25.358-8,31.967-18.905 c21.375,5.375,51.169,8.718,84.151,8.718c65.028,0,117.744-13,117.744-29.03C434.771,190.958,382.056,177.958,317.027,177.958z" />
    <path fill="black" d="M218.048,265.643c-7.328,21.068-18.608,45.1-32.452,69.1c-7.187,12.438-14.812,24.404-22.546,35.404l-4.75,141.839h78.512 l-8.406-250.749C225.11,263.018,221.642,264.518,218.048,265.643z" />
  </mask>
  <!-- fill Green 500 - https://materialui.co/colors/ -->
  <rect x="0" y="0" rx="10%" width="100%" height="100%" fill="#4CAF50" mask="url(#wind-turbine)" />
</svg>